<svg width="64" height="64" viewBox="0 0 64 64" xmlns="http://www.w3.org/2000/svg">
  <defs>
    <linearGradient id="metallic" x1="0%" y1="0%" x2="100%" y2="100%">
      <stop offset="0%" style="stop-color:#F3F4F6;stop-opacity:1" />
      <stop offset="30%" style="stop-color:#D1D5DB;stop-opacity:1" />
      <stop offset="70%" style="stop-color:#9CA3AF;stop-opacity:1" />
      <stop offset="100%" style="stop-color:#6B7280;stop-opacity:1" />
    </linearGradient>
    <linearGradient id="metallic2" x1="0%" y1="0%" x2="100%" y2="100%">
      <stop offset="0%" style="stop-color:#E5E7EB;stop-opacity:1" />
      <stop offset="50%" style="stop-color:#9CA3AF;stop-opacity:1" />
      <stop offset="100%" style="stop-color:#4B5563;stop-opacity:1" />
    </linearGradient>
    <filter id="shadow" x="-20%" y="-20%" width="140%" height="140%">
      <feDropShadow dx="1" dy="1" stdDeviation="1" flood-color="#000000" flood-opacity="0.4"/>
    </filter>
    <filter id="glow" x="-50%" y="-50%" width="200%" height="200%">
      <feGaussianBlur stdDeviation="2" result="coloredBlur"/>
      <feMerge> 
        <feMergeNode in="coloredBlur"/>
        <feMergeNode in="SourceGraphic"/>
      </feMerge>
    </filter>
  </defs>
  
  <!-- P - Rounded metallic with face inside -->
  <g transform="translate(8, 8)">
    <path d="M0 0 L0 48 L16 48 L24 40 L24 24 L16 16 L0 16 Z" fill="url(#metallic)" filter="url(#shadow)"/>
    <path d="M0 0 L0 48 L16 48 L24 40 L24 24 L16 16 L0 16 Z" fill="none" stroke="url(#metallic2)" stroke-width="1" filter="url(#glow)"/>
    
    <!-- Face inside P -->
    <circle cx="12" cy="20" r="2.5" fill="#1F2937"/>
    <circle cx="12" cy="20" r="1.5" fill="#6B7280"/>
    <path d="M10 24 Q12 26 14 24" stroke="#1F2937" stroke-width="2" fill="none" stroke-linecap="round"/>
    <circle cx="10" cy="18" r="0.8" fill="#1F2937"/>
    <circle cx="14" cy="18" r="0.8" fill="#1F2937"/>
  </g>
  
  <!-- S - Segmented with wings -->
  <g transform="translate(32, 8)">
    <path d="M0 16 Q0 8 8 8 L16 8 Q24 8 24 16 Q24 24 16 24 L8 24 Q0 24 0 32 Q0 40 8 40 L16 40 Q24 40 24 32" fill="none" stroke="url(#metallic)" stroke-width="4" stroke-linecap="round" filter="url(#shadow)"/>
    
    <!-- Wings on S -->
    <path d="M-4 12 L-8 10 L-6 8 L-2 10 Z" fill="url(#metallic2)" filter="url(#shadow)"/>
    <path d="M-4 12 L-6 14 L-8 12 L-6 10 Z" fill="url(#metallic2)" filter="url(#shadow)"/>
    
    <!-- Segmented appearance -->
    <line x1="4" y1="12" x2="20" y2="12" stroke="#374151" stroke-width="1" opacity="0.6"/>
    <line x1="4" y1="28" x2="20" y2="28" stroke="#374151" stroke-width="1" opacity="0.6"/>
  </g>
  
  <!-- Y - Metallic beams with propellers -->
  <g transform="translate(56, 8)">
    <path d="M0 0 L8 16 L16 0 L16 8 L8 24 L0 8 Z" fill="url(#metallic)" filter="url(#shadow)"/>
    <path d="M0 0 L8 16 L16 0 L16 8 L8 24 L0 8 Z" fill="none" stroke="url(#metallic2)" stroke-width="1" filter="url(#glow)"/>
    
    <!-- Propeller elements -->
    <circle cx="8" cy="4" r="2" fill="#374151"/>
    <line x1="6" y1="4" x2="10" y2="4" stroke="#1F2937" stroke-width="1.5"/>
    <line x1="8" y1="2" x2="8" y2="6" stroke="#1F2937" stroke-width="1.5"/>
    
    <circle cx="8" cy="20" r="2" fill="#374151"/>
    <line x1="6" y1="20" x2="10" y2="20" stroke="#1F2937" stroke-width="1.5"/>
    <line x1="8" y1="18" x2="8" y2="22" stroke="#1F2937" stroke-width="1.5"/>
  </g>
  
  <!-- C - Segmented/modular appearance -->
  <g transform="translate(8, 40)">
    <path d="M0 8 Q0 0 8 0 L16 0 Q24 0 24 8 L24 16 Q24 24 16 24 L8 24 Q0 24 0 16" fill="none" stroke="url(#metallic)" stroke-width="4" stroke-linecap="round" filter="url(#shadow)"/>
    
    <!-- Segmentation lines -->
    <line x1="4" y1="4" x2="20" y2="4" stroke="url(#metallic2)" stroke-width="1.5" filter="url(#shadow)"/>
    <line x1="4" y1="20" x2="20" y2="20" stroke="url(#metallic2)" stroke-width="1.5" filter="url(#shadow)"/>
    <line x1="4" y1="12" x2="20" y2="12" stroke="url(#metallic2)" stroke-width="1" opacity="0.7"/>
    
    <!-- Modular gaps -->
    <rect x="8" y="2" width="8" height="2" fill="#1F2937" opacity="0.3"/>
    <rect x="8" y="20" width="8" height="2" fill="#1F2937" opacity="0.3"/>
  </g>
</svg>
